<svg width="167" height="88" viewBox="0 0 167 88" fill="none" xmlns="http://www.w3.org/2000/svg">
<rect x="13" y="15" width="53" height="73" rx="15" fill="url(#paint0_linear_102_2)"/>
<rect x="37" y="81" width="6" height="5" rx="2.5" fill="black"/>
<rect x="38" y="82" width="4" height="3" rx="1.5" fill="#A282FF"/>
<rect x="20" y="24" width="39" height="53" fill="black"/>
<path d="M31.076 65.838C30.0386 66.0248 29.0114 66.2868 27.9944 66.6238C27.1117 65.8858 26.5605 65.1851 26.3407 64.5218C26.3998 64.404 26.5228 63.9903 26.7096 63.2806C26.8964 62.5708 27.1011 61.7374 27.3237 60.7802C27.567 59.826 27.794 58.8379 28.005 57.8159C28.2159 56.7939 28.3735 55.9221 28.4779 55.2005C29.5126 54.887 31.0402 54.8763 33.0609 55.1685C33.2877 55.2013 33.5145 55.2341 33.7413 55.2669C33.9681 55.2997 34.2037 55.3443 34.4482 55.4007C35.2351 60.4402 36.8874 63.3524 39.4051 64.1375C40.4805 64.1246 41.3398 63.8594 41.983 63.342C42.6498 62.8069 43.0383 62.1579 43.1486 61.395C43.2291 60.8383 43.149 60.3004 42.9083 59.7815C42.6706 59.2419 42.3238 58.7287 41.868 58.2418C41.4121 57.7548 40.859 57.2854 40.2087 56.8335C39.5789 56.3846 38.9065 55.9401 38.1913 55.4999C37.479 55.039 36.7535 54.5973 36.0147 54.1747C35.2789 53.7315 34.5755 53.2825 33.9046 52.8276C33.1923 52.3668 32.5318 51.8398 31.9229 51.2465C31.317 50.6327 30.8026 49.9689 30.3795 49.2552C29.9595 48.5208 29.6514 47.7395 29.4554 46.9113C29.2801 46.086 29.258 45.2198 29.3892 44.3125C29.5293 43.3435 29.8403 42.357 30.3223 41.3531C30.8042 40.3493 31.5099 39.4725 32.4393 38.7228C33.3686 37.973 34.554 37.4182 35.9953 37.0583C37.4396 36.6777 39.1927 36.6365 41.2546 36.9347C43.5433 37.2656 45.2162 37.6338 46.2732 38.0392L47.4712 37.8336L49.5744 38.1377C49.589 39.929 49.6716 41.6145 49.8221 43.1939C49.9932 44.7764 50.2205 46.2617 50.5039 47.6499C49.4891 48.4083 48.3528 48.6965 47.095 48.5147C46.5133 47.5885 45.9711 46.7524 45.4686 46.0061C44.969 45.2392 44.4766 44.5681 43.9915 43.9927C43.5269 43.4204 43.049 42.9408 42.5576 42.554C42.0869 42.1702 41.5821 41.8761 41.0433 41.6719C39.6496 41.702 38.8798 42.2221 38.7337 43.2325C38.6174 44.0366 38.8665 44.7883 39.4811 45.4876C40.0957 46.187 40.893 46.8601 41.873 47.507C42.853 48.1539 43.9288 48.7936 45.1003 49.4261C46.2955 50.041 47.414 50.6763 48.4558 51.3322C49.2093 51.799 49.8963 52.3614 50.5168 53.0195C51.158 53.6805 51.693 54.421 52.1217 55.2408C52.5535 56.0399 52.8584 56.9155 53.0365 57.8675C53.2176 58.7988 53.2336 59.7799 53.0845 60.8109C52.8639 62.3367 52.2738 63.6512 51.3144 64.7544C50.3756 65.8606 49.2059 66.744 47.8053 67.4045C46.4253 68.068 44.8881 68.5088 43.1936 68.7269C41.4991 68.945 39.8065 68.9318 38.1157 68.6873C35.2085 68.2669 32.8619 67.3172 31.076 65.838ZM38.0826 67.3879C40.66 67.7606 42.9765 67.3167 45.0322 66.0563C47.0879 64.7958 48.2529 63.2171 48.5272 61.3202C48.7955 59.4645 48.4596 57.7845 47.5193 56.2803C46.5821 54.7555 45.363 53.5057 43.862 52.5308C42.3611 51.556 40.8409 50.6415 39.3014 49.7874C37.765 48.9127 36.4908 47.9707 35.479 46.9613C34.4672 45.952 34.0433 44.8803 34.2073 43.7462C34.416 42.3029 35.1101 41.2876 36.2896 40.7004C37.4691 40.1131 38.7806 39.9239 40.2239 40.1326C41.7497 40.3532 43.0419 41.0242 44.1007 42.1456C45.1594 43.267 46.4043 44.9942 47.8351 47.3271C48.3918 47.4076 48.8133 47.3317 49.0995 47.0995C48.6526 44.8035 47.7794 42.8354 46.48 41.1951C45.2041 39.5371 43.4012 38.5396 41.0713 38.2027C37.7516 37.7227 35.2554 38.1722 33.5825 39.5511C31.9126 40.9095 30.9375 42.5577 30.6572 44.4959C30.4187 46.1454 30.7609 47.6368 31.6837 48.9701C32.6302 50.2858 33.8304 51.375 35.2844 52.2378C36.762 53.0829 38.2293 53.9266 39.6863 54.7688C41.1432 55.611 42.3466 56.6059 43.2963 57.7536C44.246 58.9014 44.6194 60.1763 44.4167 61.5783C44.2468 62.7536 43.5895 63.7321 42.445 64.5139C41.3006 65.2957 39.8211 65.5554 38.0066 65.293C35.821 64.977 34.2301 64.0417 33.234 62.4874C32.2615 60.9153 31.5535 58.8237 31.1101 56.2126C30.3885 56.1082 29.895 56.1 29.6297 56.188C29.415 57.6725 29.0969 59.3631 28.6753 61.2598C28.2536 63.1565 27.9453 64.2697 27.7503 64.5993C27.8648 64.8264 28.0339 65.0403 28.2575 65.241C29.1893 64.7653 29.9297 64.2303 30.4787 63.6361C32.1471 64.9088 33.4611 65.7935 34.4208 66.2901C35.398 66.8103 36.6187 67.1762 38.0826 67.3879Z" fill="url(#paint1_linear_102_2)"/>
<path d="M75.1562 48.6406C75.6458 48.724 76.0312 48.9167 76.3125 49.2188C76.6042 49.5104 76.75 49.8854 76.75 50.3438C76.75 50.8958 76.5677 51.3542 76.2031 51.7188C75.8385 52.0729 75.3594 52.25 74.7656 52.25C74.151 52.25 73.5938 52.0312 73.0938 51.5938C72.5938 51.1562 72.3438 50.5365 72.3438 49.7344C72.3438 48.3698 72.9896 47.2656 74.2812 46.4219C75.5833 45.5781 77.2812 45.1562 79.375 45.1562C81.3646 45.1562 82.7604 45.5573 83.5625 46.3594C84.375 47.151 84.7812 48.4896 84.7812 50.375V55.8438L85.7812 55.8125C86.6354 55.875 87.2292 56.2812 87.5625 57.0312L87.0625 57.8906C86.7396 58.3802 86.4688 58.7604 86.25 59.0312C86.0417 59.2917 85.7396 59.5885 85.3438 59.9219C84.9479 60.2552 84.4844 60.4948 83.9531 60.6406C83.4219 60.7865 82.8021 60.8594 82.0938 60.8594C81.2188 60.8594 80.5573 60.5312 80.1094 59.875C78.9844 60.6875 77.5156 61.0938 75.7031 61.0938C74.9115 61.0938 74.2344 60.9688 73.6719 60.7188C73.1198 60.4792 72.7135 60.1562 72.4531 59.75C72.2031 59.3438 72.026 58.9635 71.9219 58.6094C71.8177 58.2552 71.7656 57.8958 71.7656 57.5312C71.7656 56 72.2812 54.8542 73.3125 54.0938C74.3438 53.3333 76.4271 52.5521 79.5625 51.75V50.0469C79.5625 49.2135 79.3854 48.6042 79.0312 48.2188C78.6875 47.8333 78.2396 47.6406 77.6875 47.6406C76.5104 47.6406 75.6667 47.974 75.1562 48.6406ZM80.2031 53.2188V56.4844C79.2031 57.8073 78.1823 58.4688 77.1406 58.4688C76.5365 58.4688 76.0417 58.3229 75.6562 58.0312C75.2812 57.7396 75.0938 57.3281 75.0938 56.7969C75.0938 55.9427 75.4427 55.2396 76.1406 54.6875C76.849 54.1354 78.2031 53.6458 80.2031 53.2188ZM79.5625 56.2812V54.375C78.0521 54.9271 77.2969 55.7344 77.2969 56.7969C77.2969 57.2448 77.4583 57.5573 77.7812 57.7344C78.3333 57.5365 78.9271 57.0521 79.5625 56.2812ZM74.7656 50.875C74.401 50.875 74.1458 50.6094 74 50.0781C73.7917 49.224 74.0469 48.4792 74.7656 47.8438C75.474 47.2188 76.5417 46.9062 77.9688 46.9062C78.6458 46.9062 79.1875 47.1719 79.5938 47.7031C80 48.224 80.2031 49.0052 80.2031 50.0469V52.2188C77.1302 53.0104 75.0625 53.7604 74 54.4688C72.9375 55.1667 72.4062 56.1875 72.4062 57.5312C72.4062 58.2396 72.6458 58.9062 73.125 59.5312C73.6042 60.1458 74.4635 60.4531 75.7031 60.4531C76.1927 60.4531 76.651 60.375 77.0781 60.2188C77.5156 60.0625 77.9635 59.8125 78.4219 59.4688C78.8906 59.1146 79.1771 58.8906 79.2812 58.7969C79.3854 58.7031 79.5573 58.5417 79.7969 58.3125C80.0469 58.0729 80.1823 57.9427 80.2031 57.9219C80.3385 59.4531 80.9688 60.2188 82.0938 60.2188C82.375 60.2188 82.6979 60.1458 83.0625 60C83.4271 59.8542 83.7917 59.5677 84.1562 59.1406C84.5312 58.7135 84.7656 58.4323 84.8594 58.2969C84.9635 58.151 85.1146 57.9271 85.3125 57.625C85.5104 57.3125 85.6562 57.099 85.75 56.9844C85.6146 56.6927 85.3542 56.526 84.9688 56.4844C84.3958 57.3594 83.8125 57.7865 83.2188 57.7656C82.7917 57.7448 82.5781 57.4427 82.5781 56.8594V50.375C82.5781 48.7083 82.25 47.5312 81.5938 46.8438C80.9479 46.1458 79.8333 45.7969 78.25 45.7969C76.8229 45.7969 75.5833 46.1667 74.5312 46.9062C73.4896 47.6354 72.9688 48.5781 72.9688 49.7344C72.9688 50.3281 73.151 50.7917 73.5156 51.125C73.8802 51.4479 74.2969 51.6094 74.7656 51.6094C74.9115 51.401 74.9115 51.1562 74.7656 50.875ZM97.7969 47.8438C99.026 47.8438 99.9583 48.3438 100.594 49.3438C101.24 50.3438 101.562 51.6146 101.562 53.1562C101.562 55.4167 101.161 57.026 100.359 57.9844C99.5677 58.9427 98.7031 59.4219 97.7656 59.4219C95.974 59.4219 94.724 58.7604 94.0156 57.4375V49.3125C95.2135 48.3333 96.474 47.8438 97.7969 47.8438ZM100.922 53.1562C100.922 51.9375 100.698 50.901 100.25 50.0469C99.8021 49.1927 99.151 48.6927 98.2969 48.5469C97.5781 48.651 96.8854 49 96.2188 49.5938V57.3438C96.625 58.1354 97.276 58.6042 98.1719 58.75C98.9219 58.6042 99.5677 58.0938 100.109 57.2188C100.651 56.3438 100.922 54.9896 100.922 53.1562ZM88.6094 47.875H88.6406C90.0469 47.9375 91.0469 48.151 91.6406 48.5156C91.6406 56.4948 91.6302 62.3802 91.6094 66.1719C91.5885 66.9427 90.7031 67.4479 88.9531 67.6875C88.8906 67.9167 88.8906 68.1615 88.9531 68.4219C91.6823 68.2865 94.6615 68.2865 97.8906 68.4219C98.0156 68.1823 98.0156 67.9375 97.8906 67.6875C95.4115 67.4479 94.1615 66.9427 94.1406 66.1719L94.0469 59.9062C95.0677 60.2708 96.1562 60.4531 97.3125 60.4531C98.5312 60.4531 99.6042 60.2083 100.531 59.7188C101.458 59.2188 102.182 58.5729 102.703 57.7812C103.224 56.9792 103.615 56.125 103.875 55.2188C104.146 54.3125 104.281 53.3802 104.281 52.4219C104.281 50.3906 103.818 48.7812 102.891 47.5938C101.964 46.3958 100.766 45.7969 99.2969 45.7969C97.5052 45.7969 95.7448 46.5625 94.0156 48.0938V46.2656C93.9323 46.099 93.75 45.9635 93.4688 45.8594C92.0833 46.5156 90.474 46.9427 88.6406 47.1406C88.5573 47.3698 88.5469 47.6146 88.6094 47.875ZM88.125 46.5C90.1562 46.3229 91.9896 45.8177 93.625 44.9844C94.7604 45.0781 95.6042 45.4219 96.1562 46.0156C97.1354 45.4427 98.5573 45.1562 100.422 45.1562C102.214 45.1562 103.672 45.8125 104.797 47.125C105.932 48.4375 106.5 50.2031 106.5 52.4219C106.5 53.4635 106.344 54.474 106.031 55.4531C105.719 56.4323 105.26 57.3542 104.656 58.2188C104.052 59.0833 103.208 59.776 102.125 60.2969C101.052 60.8281 99.8229 61.0938 98.4375 61.0938C97.5417 61.0938 96.8125 61.0729 96.25 61.0312L96.3438 66.1406C96.3646 66.5469 97.0729 66.8698 98.4688 67.1094C98.7396 67.724 98.7396 68.375 98.4688 69.0625C94.3021 68.9062 90.974 68.8802 88.4844 68.9844C88.2448 68.3281 88.2448 67.7031 88.4844 67.1094C90.1198 66.8906 90.9479 66.5677 90.9688 66.1406L91 48.8906C90.3229 48.6823 89.375 48.5469 88.1562 48.4844C87.8854 47.8594 87.875 47.1979 88.125 46.5ZM117.703 47.8438C118.932 47.8438 119.865 48.3438 120.5 49.3438C121.146 50.3438 121.469 51.6146 121.469 53.1562C121.469 55.4167 121.068 57.026 120.266 57.9844C119.474 58.9427 118.609 59.4219 117.672 59.4219C115.88 59.4219 114.63 58.7604 113.922 57.4375V49.3125C115.12 48.3333 116.38 47.8438 117.703 47.8438ZM120.828 53.1562C120.828 51.9375 120.604 50.901 120.156 50.0469C119.708 49.1927 119.057 48.6927 118.203 48.5469C117.484 48.651 116.792 49 116.125 49.5938V57.3438C116.531 58.1354 117.182 58.6042 118.078 58.75C118.828 58.6042 119.474 58.0938 120.016 57.2188C120.557 56.3438 120.828 54.9896 120.828 53.1562ZM108.516 47.875H108.547C109.953 47.9375 110.953 48.151 111.547 48.5156C111.547 56.4948 111.536 62.3802 111.516 66.1719C111.495 66.9427 110.609 67.4479 108.859 67.6875C108.797 67.9167 108.797 68.1615 108.859 68.4219C111.589 68.2865 114.568 68.2865 117.797 68.4219C117.922 68.1823 117.922 67.9375 117.797 67.6875C115.318 67.4479 114.068 66.9427 114.047 66.1719L113.953 59.9062C114.974 60.2708 116.062 60.4531 117.219 60.4531C118.438 60.4531 119.51 60.2083 120.438 59.7188C121.365 59.2188 122.089 58.5729 122.609 57.7812C123.13 56.9792 123.521 56.125 123.781 55.2188C124.052 54.3125 124.188 53.3802 124.188 52.4219C124.188 50.3906 123.724 48.7812 122.797 47.5938C121.87 46.3958 120.672 45.7969 119.203 45.7969C117.411 45.7969 115.651 46.5625 113.922 48.0938V46.2656C113.839 46.099 113.656 45.9635 113.375 45.8594C111.99 46.5156 110.38 46.9427 108.547 47.1406C108.464 47.3698 108.453 47.6146 108.516 47.875ZM108.031 46.5C110.062 46.3229 111.896 45.8177 113.531 44.9844C114.667 45.0781 115.51 45.4219 116.062 46.0156C117.042 45.4427 118.464 45.1562 120.328 45.1562C122.12 45.1562 123.578 45.8125 124.703 47.125C125.839 48.4375 126.406 50.2031 126.406 52.4219C126.406 53.4635 126.25 54.474 125.938 55.4531C125.625 56.4323 125.167 57.3542 124.562 58.2188C123.958 59.0833 123.115 59.776 122.031 60.2969C120.958 60.8281 119.729 61.0938 118.344 61.0938C117.448 61.0938 116.719 61.0729 116.156 61.0312L116.25 66.1406C116.271 66.5469 116.979 66.8698 118.375 67.1094C118.646 67.724 118.646 68.375 118.375 69.0625C114.208 68.9062 110.88 68.8802 108.391 68.9844C108.151 68.3281 108.151 67.7031 108.391 67.1094C110.026 66.8906 110.854 66.5677 110.875 66.1406L110.906 48.8906C110.229 48.6823 109.281 48.5469 108.062 48.4844C107.792 47.8594 107.781 47.1979 108.031 46.5ZM138.219 59.2812C135.74 59.0521 134.49 58.5521 134.469 57.7812C134.365 52.0104 134.323 44.974 134.344 36.6719C134.26 36.5052 134.078 36.3646 133.797 36.25C132.349 36.9375 130.844 37.3646 129.281 37.5312C129.219 37.7917 129.219 38.0365 129.281 38.2656C130.458 38.3385 131.354 38.5521 131.969 38.9062C132.052 46.7396 132.042 53.0312 131.938 57.7812C131.917 58.5521 131.031 59.0521 129.281 59.2812C129.177 59.5417 129.177 59.7969 129.281 60.0469C131.698 59.9635 134.677 59.9635 138.219 60.0469C138.323 59.7969 138.323 59.5417 138.219 59.2812ZM138.781 58.7031C138.958 59.349 138.958 59.9792 138.781 60.5938C134.771 60.5104 131.411 60.5104 128.703 60.5938C128.536 59.9792 128.536 59.349 128.703 58.7031C130.411 58.5365 131.276 58.2188 131.297 57.75C131.422 51.6354 131.432 45.4844 131.328 39.2969C130.63 39.0781 129.755 38.9375 128.703 38.875C128.474 38.2604 128.474 37.599 128.703 36.8906C130.286 36.8073 132.057 36.3385 134.016 35.4844C135.151 35.5677 135.995 35.9115 136.547 36.5156C136.505 45.7969 136.547 52.875 136.672 57.75C136.693 58.2188 137.396 58.5365 138.781 58.7031ZM148.578 46.8125C149.411 46.8125 150.016 47.0833 150.391 47.625C150.766 48.1562 150.953 48.8229 150.953 49.625C150.953 49.9271 150.901 50.2708 150.797 50.6562H144.703C145.026 49.3542 145.547 48.3906 146.266 47.7656C146.995 47.1302 147.766 46.8125 148.578 46.8125ZM144.547 51.7188H153.062C153.229 51.1979 153.312 50.6615 153.312 50.1094C153.312 48.8906 152.964 47.8698 152.266 47.0469C151.578 46.2135 150.479 45.7969 148.969 45.7969C147 45.7969 145.344 46.5104 144 47.9375C142.656 49.3646 141.984 51.1771 141.984 53.375C141.984 55.7188 142.625 57.4844 143.906 58.6719C145.188 59.8594 146.693 60.4531 148.422 60.4531C149.703 60.4531 150.891 60.1094 151.984 59.4219C153.089 58.724 153.896 57.6771 154.406 56.2812C154.26 56.1146 154.057 56 153.797 55.9375C153.755 56 153.63 56.1719 153.422 56.4531C153.224 56.724 153.078 56.9219 152.984 57.0469C152.891 57.1615 152.719 57.3333 152.469 57.5625C152.229 57.7812 151.995 57.9427 151.766 58.0469C151.547 58.151 151.266 58.2552 150.922 58.3594C150.578 58.4531 150.203 58.5 149.797 58.5C148.193 58.5 146.917 58.026 145.969 57.0781C145.021 56.1198 144.526 54.8333 144.484 53.2188C144.484 52.8542 144.505 52.3542 144.547 51.7188ZM153.547 55.2031C154.203 55.349 154.734 55.6771 155.141 56.1875C154.547 57.8125 153.63 59.0365 152.391 59.8594C151.151 60.6823 149.828 61.0938 148.422 61.0938C146.505 61.0938 144.844 60.4479 143.438 59.1562C142.042 57.8646 141.344 55.9375 141.344 53.375C141.344 51.0521 142.057 49.1042 143.484 47.5312C144.922 45.9479 146.953 45.1562 149.578 45.1562C153.547 45.1562 155.531 46.8073 155.531 50.1094C155.531 50.7552 155.38 51.5052 155.078 52.3594H146.688V53.375C146.74 54.6354 147.083 55.6615 147.719 56.4531C148.354 57.2344 149.229 57.6927 150.344 57.8281C151 57.7656 151.542 57.5417 151.969 57.1562C152.396 56.7708 152.922 56.1198 153.547 55.2031ZM150.312 49.625C150.312 48.4792 149.927 47.7865 149.156 47.5469C148.24 47.8281 147.557 48.651 147.109 50.0156H150.281C150.281 49.974 150.286 49.9115 150.297 49.8281C150.307 49.7448 150.312 49.6771 150.312 49.625Z" fill="#70BDFF"/>
<defs>
<linearGradient id="paint0_linear_102_2" x1="39.1159" y1="29.1706" x2="39.5961" y2="87.9992" gradientUnits="userSpaceOnUse">
<stop offset="0.0647059" stop-color="#E58BFF"/>
<stop offset="1" stop-color="#70BDFF"/>
</linearGradient>
<linearGradient id="paint1_linear_102_2" x1="44.7904" y1="13.46" x2="56.2273" y2="21.6071" gradientUnits="userSpaceOnUse">
<stop stop-color="#70BDFF"/>
<stop offset="1" stop-color="#E58BFF"/>
</linearGradient>
</defs>
</svg>
